<svg xmlns="http://www.w3.org/2000/svg" viewBox="0 0 64 64" role="img" aria-labelledby="title">
  <title id="title">TrainTimer</title>
  <rect width="64" height="64" rx="12" fill="#111113"/>
  <path d="M18 13a25 25 0 0 1 30 10" fill="none" stroke="#18d6df" stroke-width="4" stroke-linecap="round"/>
  <path d="M51 29a25 25 0 0 1-8 18" fill="none" stroke="#8dffbe" stroke-width="4" stroke-linecap="round"/>
  <g transform="translate(14 18) rotate(-7 18 18)">
    <rect x="0" y="0" width="36" height="36" rx="6" fill="#08080a"/>
    <rect x="4" y="4" width="8" height="8" rx="1.6" fill="#f5f5f7"/>
    <rect x="14" y="4" width="8" height="8" rx="1.6" fill="#dc2626"/>
    <rect x="24" y="4" width="8" height="8" rx="1.6" fill="#16a34a"/>
    <rect x="4" y="14" width="8" height="8" rx="1.6" fill="#f97316"/>
    <rect x="14" y="14" width="8" height="8" rx="1.6" fill="#facc15"/>
    <rect x="24" y="14" width="8" height="8" rx="1.6" fill="#2563eb"/>
    <rect x="4" y="24" width="8" height="8" rx="1.6" fill="#16a34a"/>
    <rect x="14" y="24" width="8" height="8" rx="1.6" fill="#f5f5f7"/>
    <rect x="24" y="24" width="8" height="8" rx="1.6" fill="#dc2626"/>
  </g>
</svg>
