<?xml version="1.0" encoding="UTF-8"?>
<svg xmlns="http://www.w3.org/2000/svg"
     width="1024"
     height="1024"
     viewBox="0 0 1024 1024"
     role="img"
     aria-labelledby="zero-point-title zero-point-desc">
  <title id="zero-point-title">TrainTimer Zero Point app icon concept</title>
  <desc id="zero-point-desc">A calibrated, octagonal zero built from a cool titanium frame. A diagonal cut at three o'clock is completed by one offset ice-cyan timing segment and a fractional-second point, set on a deep smoked-navy macOS icon base.</desc>

  <defs>
    <linearGradient id="base" x1="168" y1="96" x2="858" y2="948" gradientUnits="userSpaceOnUse">
      <stop offset="0" stop-color="#123448"/>
      <stop offset="0.5" stop-color="#091D2A"/>
      <stop offset="1" stop-color="#030A11"/>
    </linearGradient>
    <radialGradient id="baseSheen" cx="0" cy="0" r="1" gradientUnits="userSpaceOnUse"
                    gradientTransform="translate(302 205) rotate(48) scale(700 690)">
      <stop offset="0" stop-color="#D9FBFF" stop-opacity="0.13"/>
      <stop offset="0.42" stop-color="#6ED9E8" stop-opacity="0.035"/>
      <stop offset="1" stop-color="#07131D" stop-opacity="0"/>
    </radialGradient>
    <linearGradient id="titanium" x1="268" y1="196" x2="755" y2="836" gradientUnits="userSpaceOnUse">
      <stop offset="0" stop-color="#EDF4F5"/>
      <stop offset="0.34" stop-color="#C8D5D8"/>
      <stop offset="0.72" stop-color="#92A6AB"/>
      <stop offset="1" stop-color="#6E858C"/>
    </linearGradient>
    <linearGradient id="signal" x1="698" y1="468" x2="845" y2="539" gradientUnits="userSpaceOnUse">
      <stop offset="0" stop-color="#D8FCFF"/>
      <stop offset="0.4" stop-color="#83ECF7"/>
      <stop offset="1" stop-color="#35C5DD"/>
    </linearGradient>

    <filter id="baseShadow" x="-12%" y="-12%" width="124%" height="132%" color-interpolation-filters="sRGB">
      <feDropShadow dx="0" dy="18" stdDeviation="24" flood-color="#02070C" flood-opacity="0.62"/>
    </filter>
    <filter id="symbolShadow" x="-20%" y="-20%" width="140%" height="150%" color-interpolation-filters="sRGB">
      <feDropShadow dx="0" dy="18" stdDeviation="18" flood-color="#01060A" flood-opacity="0.55"/>
    </filter>
    <filter id="signalGlow" x="-60%" y="-60%" width="220%" height="220%" color-interpolation-filters="sRGB">
      <feGaussianBlur in="SourceGraphic" stdDeviation="11" result="blur"/>
      <feColorMatrix in="blur" type="matrix"
                     values="1 0 0 0 0
                             0 1 0 0 0
                             0 0 1 0 0
                             0 0 0 0.42 0" result="softGlow"/>
      <feMerge>
        <feMergeNode in="softGlow"/>
        <feMergeNode in="SourceGraphic"/>
      </feMerge>
    </filter>

    <path id="outerZero" d="M356 174H668Q692 174 709 191L819 301Q836 318 836 342V682Q836 706 819 723L709 833Q692 850 668 850H356Q332 850 315 833L205 723Q188 706 188 682V342Q188 318 205 301L315 191Q332 174 356 174Z"/>
    <path id="innerZero" d="M430 338H594Q608 338 618 348L662 392Q672 402 672 416V608Q672 622 662 632L618 676Q608 686 594 686H430Q416 686 406 676L362 632Q352 622 352 608V416Q352 402 362 392L406 348Q416 338 430 338Z"/>
    <path id="zeroCut" d="M642 454L855 408L884 546L650 596Z"/>

    <mask id="zeroMask" x="160" y="146" width="744" height="732"
          maskUnits="userSpaceOnUse" maskContentUnits="userSpaceOnUse" style="mask-type:luminance">
      <rect x="160" y="146" width="744" height="732" fill="#000"/>
      <use href="#outerZero" fill="#FFF"/>
      <use href="#innerZero" fill="#000"/>
      <use href="#zeroCut" fill="#000"/>
    </mask>
  </defs>

  <!-- Layer 1: smoked instrument base. The transparent corners remain available for system masking. -->
  <g id="base-layer" filter="url(#baseShadow)">
    <rect x="32" y="32" width="960" height="960" rx="224" fill="url(#base)"/>
    <rect x="32" y="32" width="960" height="960" rx="224" fill="url(#baseSheen)"/>
    <rect x="48" y="48" width="928" height="928" rx="210"
          fill="none" stroke="#C5F8FF" stroke-opacity="0.12" stroke-width="4"/>
  </g>

  <!-- Layer 2: one continuous zero frame, derived from digital segments but not a display glyph. -->
  <g id="zero-layer" filter="url(#symbolShadow)">
    <rect x="160" y="146" width="744" height="732" fill="url(#titanium)" mask="url(#zeroMask)"/>
    <use href="#outerZero" fill="none" stroke="#FFFFFF" stroke-opacity="0.2" stroke-width="7" mask="url(#zeroMask)"/>
  </g>

  <!-- Layer 3: the offset zero-point insert and a single fractional-second point. -->
  <g id="signal-layer" fill="url(#signal)" filter="url(#signalGlow)">
    <path d="M745 451L811 437Q827 434 830 450L843 510Q847 527 830 531L762 546Q745 550 742 533L729 473Q726 455 745 451Z"/>
    <circle cx="686" cy="522" r="20"/>
  </g>

  <!-- Restrained surface highlights stay inside their respective material layers. -->
  <path d="M749 462L806 450Q816 448 818 457"
        fill="none" stroke="#FFFFFF" stroke-opacity="0.55" stroke-width="6" stroke-linecap="round"/>
  <circle cx="680" cy="516" r="7" fill="#FFFFFF" fill-opacity="0.5"/>
</svg>
